<?xml version="1.0" encoding="UTF-8" standalone="no"?>
<svg
   xmlns:dc="http://purl.org/dc/elements/1.1/"
   xmlns:cc="http://creativecommons.org/ns#"
   xmlns:rdf="http://www.w3.org/1999/02/22-rdf-syntax-ns#"
   xmlns:svg="http://www.w3.org/2000/svg"
   xmlns="http://www.w3.org/2000/svg"
   width="232.03764mm"
   height="77.423843mm"
   viewBox="0 0 232.03764 77.423843"
   version="1.1"
   id="svg8">
  <defs
     id="defs2">
    <marker
       style="overflow:visible"
       id="Scissors"
       refX="0"
       refY="0"
       orient="auto">
      <path
         style="fill:#43595f;fill-opacity:1;stroke:#43595f;stroke-opacity:1"
         d="M 9.0898857,-3.6061018 C 8.1198849,-4.7769976 6.3697607,-4.7358294 5.0623558,-4.2327734 l -8.2124046,3.0779029 c -2.3882933,-1.3067135 -4.7482873,-0.9325372 -4.7482873,-1.5687873 0,-0.4973164 0.4566662,-0.3883222 0.3883068,-1.6831941 -0.065635,-1.2432767 -1.3635771,-2.1630796 -2.5903987,-2.0816435 -1.227271,-0.00735 -2.499439,0.9331613 -2.510341,2.2300611 -0.09143,1.3063864 1.007209,2.5196896 2.306764,2.6052316 1.5223406,0.2266616 4.218258,-0.6955566 5.482945,1.57086006 -0.9422847,1.73825774 -2.6140244,1.74307674 -4.1255107,1.65607034 -1.2548743,-0.072235 -2.7620933,0.2873979 -3.3606483,1.5208605 -0.578367,1.1820862 -0.0112,2.8646022 1.316749,3.226412 1.3401912,0.4918277 3.1806689,-0.129711 3.4993722,-1.6707242 0.2456585,-1.187823 -0.5953659,-1.7459574 -0.2725074,-2.1771537 0.2436135,-0.32536 1.7907806,-0.1368452 4.5471053,-1.3748244 L 5.6763468,4.2330688 C 6.8000164,4.5467672 8.1730685,4.5362646 9.1684433,3.4313614 l -9.22008423,-3.48508362 z m -18.3078016,-1.900504 c 1.294559,0.7227998 1.1888392,2.6835702 -0.1564272,3.0632889 -1.2165179,0.423661 -2.7710269,-0.7589694 -2.3831779,-2.0774648 0.227148,-1.0818519 1.653387,-1.480632 2.5396051,-0.9858241 z m 0.056264,8.0173649 c 1.3508301,0.4988648 1.1214429,2.7844356 -0.2522207,3.091609 -0.9110594,0.3163391 -2.2135494,-0.1387976 -2.3056964,-1.2121394 -0.177609,-1.305055 1.356085,-2.4841482 2.5579171,-1.8794696 z"
         id="schere" />
    </marker>
  </defs>
  <metadata
     id="metadata5">
    <rdf:RDF>
      <cc:Work
         rdf:about="">
        <dc:format>image/svg+xml</dc:format>
        <dc:type
           rdf:resource="http://purl.org/dc/dcmitype/StillImage" />
        <dc:title></dc:title>
      </cc:Work>
    </rdf:RDF>
  </metadata>
  <g
     id="layer1"
     transform="translate(8.7992878,-76.571948)">
    <text
       xml:space="preserve"
       style="font-style:normal;font-weight:normal;font-size:56.4444px;line-height:1.25;font-family:sans-serif;fill:#428ca2;fill-opacity:1;stroke:none;stroke-width:0.264583"
       x="-11.339286"
       y="120.95237"
       id="text835"><tspan
         id="tspan833"
         x="-11.339286"
         y="120.95237"
         style="font-style:normal;font-variant:normal;font-weight:normal;font-stretch:normal;font-size:56.4444px;font-family:Kenia;-inkscape-font-specification:Kenia;fill:#428ca2;fill-opacity:1;stroke-width:0.264583">talent <tspan
   style="fill:#ff6b82;fill-opacity:1"
   id="tspan841">mote</tspan></tspan></text>
    <g
       id="g3236"
       style="opacity:1">
      <path
         style="color:#000000;font-style:normal;font-variant:normal;font-weight:normal;font-stretch:normal;font-size:medium;line-height:normal;font-family:sans-serif;font-variant-ligatures:normal;font-variant-position:normal;font-variant-caps:normal;font-variant-numeric:normal;font-variant-alternates:normal;font-variant-east-asian:normal;font-feature-settings:normal;font-variation-settings:normal;text-indent:0;text-align:start;text-decoration:none;text-decoration-line:none;text-decoration-style:solid;text-decoration-color:#000000;letter-spacing:normal;word-spacing:normal;text-transform:none;writing-mode:lr-tb;direction:ltr;text-orientation:mixed;dominant-baseline:auto;baseline-shift:baseline;text-anchor:start;white-space:normal;shape-padding:0;shape-margin:0;inline-size:0;clip-rule:nonzero;display:inline;overflow:visible;visibility:visible;isolation:auto;mix-blend-mode:normal;color-interpolation:sRGB;color-interpolation-filters:linearRGB;solid-color:#000000;solid-opacity:1;vector-effect:none;fill:#ffffff;fill-opacity:1;fill-rule:nonzero;stroke:none;stroke-width:1.46499998;stroke-linecap:butt;stroke-linejoin:miter;stroke-miterlimit:4;stroke-dasharray:2.92999996, 2.92999995999999996;stroke-dashoffset:0;stroke-opacity:1;color-rendering:auto;image-rendering:auto;shape-rendering:auto;text-rendering:auto;enable-background:accumulate;stop-color:#000000;stop-opacity:1"
         d="m 114.9043,76.990754 -0.01,2.93164 1.46485,0.0039 0.01,-2.929688 z m -0.0195,5.861328 -0.01,2.929688 1.46484,0.0039 0.01,-2.929688 z m -0.0195,5.859375 -0.01,2.929687 1.46484,0.0059 0.01,-2.929688 z m -0.0195,5.859375 -0.0117,2.929688 1.4668,0.0059 0.01,-2.929688 z m -0.0215,5.861318 -0.01,2.92969 1.46485,0.004 0.01,-2.92969 z m -0.0195,5.85937 -0.01,2.92969 1.46485,0.006 0.01,-2.93164 z m -0.0195,5.85938 -0.01,2.92969 1.46484,0.006 0.01,-2.92968 z m -0.0195,5.86133 -0.01,2.92968 1.46484,0.004 0.01,-2.92969 z m -0.0195,5.85937 -0.01,2.92969 1.46484,0.004 0.01,-2.92969 z m -0.0195,5.85938 -0.0117,2.92968 1.4668,0.006 0.01,-2.92968 z"
         id="path3248" />
      <g
         id="g3238"
         style="fill:#ffffff;fill-opacity:1">
        <g
           id="g3242"
           style="opacity:1;fill:#ffffff;fill-opacity:1">
          <path
             style="color:#000000;font-style:normal;font-variant:normal;font-weight:normal;font-stretch:normal;font-size:medium;line-height:normal;font-family:sans-serif;font-variant-ligatures:normal;font-variant-position:normal;font-variant-caps:normal;font-variant-numeric:normal;font-variant-alternates:normal;font-variant-east-asian:normal;font-feature-settings:normal;font-variation-settings:normal;text-indent:0;text-align:start;text-decoration:none;text-decoration-line:none;text-decoration-style:solid;text-decoration-color:#000000;letter-spacing:normal;word-spacing:normal;text-transform:none;writing-mode:lr-tb;direction:ltr;text-orientation:mixed;dominant-baseline:auto;baseline-shift:baseline;text-anchor:start;white-space:normal;shape-padding:0;shape-margin:0;inline-size:0;clip-rule:nonzero;display:inline;overflow:visible;visibility:visible;isolation:auto;mix-blend-mode:normal;color-interpolation:sRGB;color-interpolation-filters:linearRGB;solid-color:#000000;solid-opacity:1;vector-effect:none;fill:#ffffff;fill-opacity:1;fill-rule:nonzero;stroke:none;stroke-width:1.465;stroke-linecap:butt;stroke-linejoin:miter;stroke-miterlimit:4;stroke-dasharray:none;stroke-dashoffset:0;stroke-opacity:1;color-rendering:auto;image-rendering:auto;shape-rendering:auto;text-rendering:auto;enable-background:accumulate;stop-color:#000000;stop-opacity:1"
             d="m 110.21048,121.44582 c -1.72017,1.41523 -1.66855,3.97935 -0.93806,5.89719 l 4.46833,12.04638 c -1.92619,3.49234 -1.38974,6.95157 -2.32184,6.94841 -0.72856,-0.002 -0.56662,-0.67094 -2.46394,-0.57722 -1.82171,0.09 -3.17566,1.98689 -3.06245,3.78458 -0.0169,1.7979 1.35467,3.66629 3.25456,3.6887 1.91339,0.14043 3.69633,-1.46304 3.8281,-3.36646 0.33961,-2.22909 -0.99805,-6.18316 2.32851,-8.02467 2.54186,1.38907 2.54062,3.83818 2.40565,6.05206 -0.11205,1.83803 0.40732,4.04787 2.21136,4.93088 1.72888,0.85317 4.19657,0.0306 4.73321,-1.91301 0.72718,-1.96093 -0.17424,-4.6603 -2.43023,-5.13485 -1.73893,-0.36578 -2.56076,0.86354 -3.19086,0.38841 -0.47544,-0.3585 -0.19159,-2.62415 -1.99153,-6.66829 l 4.63656,-13.01238 c 0.46515,-1.64461 0.45658,-3.65618 -1.15716,-5.11988 l -5.15139,13.49005 z m -2.87512,26.81134 c 1.06533,-1.89293 3.93731,-1.72832 4.48692,0.24437 0.61462,1.7843 -1.12564,4.05577 -3.0553,3.48103 -1.58378,-0.33815 -2.1609,-2.42955 -1.43162,-3.7254 z m 11.74566,-0.0426 c 0.73754,-1.97648 4.08474,-1.62908 4.52793,0.38485 0.45891,1.33626 -0.21433,3.24214 -1.78723,3.37181 -1.91277,0.25371 -3.63252,-1.99899 -2.7407,-3.75666 z"
             id="path3244" />
          <path
             style="color:#000000;font-style:normal;font-variant:normal;font-weight:normal;font-stretch:normal;font-size:medium;line-height:normal;font-family:sans-serif;font-variant-ligatures:normal;font-variant-position:normal;font-variant-caps:normal;font-variant-numeric:normal;font-variant-alternates:normal;font-variant-east-asian:normal;font-feature-settings:normal;font-variation-settings:normal;text-indent:0;text-align:start;text-decoration:none;text-decoration-line:none;text-decoration-style:solid;text-decoration-color:#000000;letter-spacing:normal;word-spacing:normal;text-transform:none;writing-mode:lr-tb;direction:ltr;text-orientation:mixed;dominant-baseline:auto;baseline-shift:baseline;text-anchor:start;white-space:normal;shape-padding:0;shape-margin:0;inline-size:0;clip-rule:nonzero;display:inline;overflow:visible;visibility:visible;isolation:auto;mix-blend-mode:normal;color-interpolation:sRGB;color-interpolation-filters:linearRGB;solid-color:#000000;solid-opacity:1;vector-effect:none;fill:#ffffff;fill-opacity:1;fill-rule:nonzero;stroke:none;stroke-width:1.465;stroke-linecap:butt;stroke-linejoin:miter;stroke-miterlimit:4;stroke-dasharray:none;stroke-dashoffset:0;stroke-opacity:1;color-rendering:auto;image-rendering:auto;shape-rendering:auto;text-rendering:auto;enable-background:accumulate;stop-color:#000000;stop-opacity:1"
             d="m 120.21875,120.10352 -4.85156,12.70507 -4.83789,-12.57421 -0.78516,0.64648 c -1.03047,0.8478 -1.52469,2.04825 -1.65039,3.24805 -0.1257,1.19979 0.0923,2.41957 0.49414,3.47461 l 4.36914,11.77929 c -0.88275,1.73656 -1.26095,3.4339 -1.47265,4.66797 -0.11088,0.64634 -0.19417,1.16568 -0.27735,1.45899 -0.0632,-0.0405 -0.10529,-0.0718 -0.23242,-0.14063 -0.39284,-0.21266 -1.02323,-0.39089 -2.05664,-0.33984 -2.30209,0.11373 -3.87727,2.35108 -3.75195,4.53906 -0.005,2.15837 1.59905,4.35032 3.95117,4.39258 2.33545,0.15729 4.4103,-1.71186 4.58203,-4.02344 0.19021,-1.31069 -0.0619,-2.80585 0.0508,-4.16797 0.10113,-1.22263 0.51499,-2.20041 1.58594,-2.96875 0.78536,0.55213 1.25005,1.18575 1.46875,1.95899 0.25842,0.9137 0.24032,1.99914 0.17383,3.08984 -0.0613,1.00542 0.0436,2.11114 0.43359,3.13086 0.38947,1.01846 1.09211,1.96622 2.18359,2.50195 5.8e-4,2.9e-4 0.001,-2.8e-4 0.002,0 8.6e-4,4.3e-4 0.001,0.002 0.002,0.002 2.13599,1.05114 5.05611,0.0725 5.74609,-2.35352 0.42184,-1.16703 0.37292,-2.48564 -0.11328,-3.62891 -0.49114,-1.15489 -1.47487,-2.15058 -2.85742,-2.4414 -1.05397,-0.2217 -1.90118,0.058 -2.43555,0.27343 -0.22491,0.0907 -0.36313,0.14141 -0.45898,0.17188 0.002,-0.0102 0.046,0.0577 0.01,-0.11524 -0.0602,-0.28723 -0.12652,-0.74002 -0.23632,-1.31445 -0.20528,-1.07393 -0.64052,-2.6661 -1.44336,-4.55859 l 4.5664,-12.8086 0.006,-0.0234 c 0.50837,-1.7974 0.49102,-4.17608 -1.36914,-5.86328 z m -10.23437,2.79296 5.38671,14.00586 5.28711,-13.84179 c 0.49663,1.02882 0.6194,2.14244 0.31446,3.22265 -3.6e-4,0.001 3.5e-4,0.003 0,0.004 l -4.71875,13.24023 0.11914,0.26758 c 0.52452,1.17851 0.6325,1.87868 0.86523,2.73633 -0.40839,-0.50083 -0.91349,-0.96562 -1.58398,-1.33203 l -0.35352,-0.19336 -0.35156,0.19531 c -0.81939,0.4536 -1.31389,1.08317 -1.72266,1.73828 0.23044,-1.00677 0.54107,-2.08188 1.15625,-3.19726 l 0.16211,-0.29297 -4.58594,-12.36328 -0.002,-0.004 c -0.32864,-0.86281 -0.50216,-1.88329 -0.40625,-2.79883 0.0537,-0.51222 0.20883,-0.97068 0.4336,-1.38672 z m 8.3496,23.34375 c 0.0695,0.17087 0.0442,0.35061 0.25782,0.51172 0.22304,0.16819 0.48142,0.13294 0.73437,0.14258 -0.34866,0.27502 -0.7008,0.55239 -0.88672,1.01367 0.0317,-0.52427 -0.0897,-1.10721 -0.10547,-1.66797 z m -6.05468,0.39649 c 8e-5,0.4927 -0.0264,0.85996 -0.0117,1.29492 -0.17361,-0.36597 -0.37191,-0.70864 -0.66211,-0.95703 0.26158,-0.0642 0.53652,-0.16392 0.67383,-0.33789 z m -2.54688,1.02344 c 0.66263,0.0368 1.19708,0.36345 1.38477,1.03711 l 0.006,0.0215 0.006,0.0215 c 0.2068,0.60039 0.0114,1.37244 -0.44336,1.91797 -0.45478,0.54553 -1.05491,0.81787 -1.70899,0.62305 l -0.0273,-0.01 -0.0293,-0.006 c -0.50809,-0.10848 -0.8566,-0.48573 -1.04297,-1.02539 -0.18636,-0.53965 -0.14387,-1.19387 0.0977,-1.62304 0.39023,-0.69338 1.09518,-0.99386 1.75781,-0.95703 z m 11.66992,0 c 0.68725,0.0709 1.35188,0.46007 1.49219,1.09765 l 0.008,0.0391 0.0137,0.041 c 0.15896,0.46288 0.12072,1.10885 -0.10352,1.58984 -0.22424,0.48099 -0.54867,0.77111 -1.05078,0.8125 l -0.0176,0.002 -0.0195,0.002 c -1.29577,0.17187 -2.59586,-1.50366 -1.99023,-2.69726 l 0.0176,-0.0371 0.0156,-0.0391 c 0.23696,-0.63501 0.94751,-0.88145 1.63476,-0.81054 z m -2.97461,0.22265 c -0.008,0.0153 -3.4e-4,0.0316 -0.008,0.0469 -0.005,0.0134 -0.0203,0.0157 -0.0254,0.0293 z m -5.91211,0.38086 0.0117,0.041 c -0.002,-0.006 -0.008,-0.009 -0.01,-0.0156 -0.003,-0.008 9.7e-4,-0.0169 -0.002,-0.0254 z m 11.78516,0.0977 0.0234,0.0801 c -0.002,-0.0107 -0.0132,-0.0148 -0.0156,-0.0254 -0.006,-0.0177 -0.002,-0.037 -0.008,-0.0547 z m -15.71484,4.32226 c 0.011,0.002 0.0163,0.0133 0.0273,0.0156 l -0.0547,-0.0137 c 0.01,0.003 0.0178,-0.005 0.0273,-0.002 z m 13.31445,0.0117 c 0.006,-7.8e-4 0.0114,0.003 0.0176,0.002 l -0.0352,0.004 c 0.007,-5.5e-4 0.0109,-0.005 0.0176,-0.006 z"
             id="path3246" />
        </g>
      </g>
    </g>
  </g>
</svg>
